<svg width="481" height="780" viewBox="0 0 481 780" fill="none" xmlns="http://www.w3.org/2000/svg">
<path d="M96.1713 516.307C109.563 498.794 119.867 463.764 119.867 409.672V262.341C119.867 208.253 109.563 173.224 96.1713 155.708H176.018C162.624 173.224 152.322 208.253 152.322 262.341V510.125C207.955 504.459 281.107 493.126 308.409 461.186L306.348 516.307H96.1713Z" fill="#596846"/>
<path d="M242.065 485.577V361.024C242.065 306.936 252.369 271.907 265.761 254.391H185.914C199.309 271.907 209.611 306.936 209.611 361.024V492.758" fill="#596846"/>
<path d="M207.942 526.306C204.517 560.677 196.12 584.216 185.914 597.562H396.092L398.153 542.44C370.85 574.38 297.7 585.713 242.064 591.379V526.306" fill="#596846"/>
<path d="M240.496 775.935C110.425 775.935 4 669.513 4 539.441V240.494C4 110.423 110.425 4.00025 240.496 4.00025C370.567 4.00025 476.99 110.423 476.99 240.494V539.441C476.99 669.513 370.567 775.935 240.496 775.935Z" stroke="#596846" stroke-width="6.92778" stroke-miterlimit="10"/>
</svg>
