<?xml version="1.0" encoding="utf-8"?>
<!-- Generator: Adobe Illustrator 16.0.0, SVG Export Plug-In . SVG Version: 6.00 Build 0)  -->
<!DOCTYPE svg PUBLIC "-//W3C//DTD SVG 1.1//EN" "http://www.w3.org/Graphics/SVG/1.1/DTD/svg11.dtd">
<svg version="1.1" xmlns="http://www.w3.org/2000/svg" xmlns:xlink="http://www.w3.org/1999/xlink" x="0px" y="0px"
	 width="455.977px" height="96px" viewBox="0 0 455.977 96" enable-background="new 0 0 455.977 96" xml:space="preserve">
<g id="BOX" display="none">
	<linearGradient id="SVGID_1_" gradientUnits="userSpaceOnUse" x1="-417.7559" y1="227.9062" x2="-341.1271" y2="252.8044">
		<stop  offset="0" style="stop-color:#44187C"/>
		<stop  offset="0.9657" style="stop-color:#36126C"/>
		<stop  offset="1" style="stop-color:#35126B"/>
	</linearGradient>
	<polygon display="inline" fill="url(#SVGID_1_)" points="-420.129,235.209 -350.754,235.209 -338.754,245.5 -408.129,245.5 	"/>
	<linearGradient id="SVGID_2_" gradientUnits="userSpaceOnUse" x1="-427.6328" y1="237.9399" x2="-400.6249" y2="312.1436">
		<stop  offset="0" style="stop-color:#44187C"/>
		<stop  offset="0.5079" style="stop-color:#3F1676"/>
		<stop  offset="1" style="stop-color:#35126B"/>
	</linearGradient>
	<polygon display="inline" fill="url(#SVGID_2_)" points="-420.129,235.209 -408.129,245.5 -408.129,314.875 -420.129,304.584 	"/>
	<linearGradient id="SVGID_3_" gradientUnits="userSpaceOnUse" x1="-241.7334" y1="317.7896" x2="-313.4432" y2="250.9191">
		<stop  offset="0" style="stop-color:#44187C"/>
		<stop  offset="0.3995" style="stop-color:#522189"/>
		<stop  offset="1" style="stop-color:#6F34A4"/>
	</linearGradient>
	<rect x="-312.276" y="249.667" display="inline" fill="url(#SVGID_3_)" width="69.375" height="69.375"/>
	<linearGradient id="SVGID_4_" gradientUnits="userSpaceOnUse" x1="-251.5439" y1="230.2544" x2="-315.6329" y2="258.7886">
		<stop  offset="0" style="stop-color:#44187C"/>
		<stop  offset="0.3393" style="stop-color:#4F1F86"/>
		<stop  offset="0.9279" style="stop-color:#6B31A0"/>
		<stop  offset="1" style="stop-color:#6F34A4"/>
	</linearGradient>
	<polygon display="inline" fill="url(#SVGID_4_)" points="-324.276,239.375 -254.901,239.375 -242.901,249.667 -312.276,249.667 	
		"/>
	<linearGradient id="SVGID_5_" gradientUnits="userSpaceOnUse" x1="-329.5903" y1="281.4087" x2="-306.9607" y2="277.0099">
		<stop  offset="0" style="stop-color:#44187C"/>
		<stop  offset="0.2896" style="stop-color:#4B1C82"/>
		<stop  offset="0.6947" style="stop-color:#5D2893"/>
		<stop  offset="1" style="stop-color:#6F34A4"/>
	</linearGradient>
	<polygon display="inline" fill="url(#SVGID_5_)" points="-324.276,239.375 -312.276,249.667 -312.276,319.042 -324.276,308.75 	"/>
	<linearGradient id="SVGID_6_" gradientUnits="userSpaceOnUse" x1="-406.2217" y1="243.7812" x2="-340.6626" y2="316.592">
		<stop  offset="0" style="stop-color:#4D1984"/>
		<stop  offset="0.0207" style="stop-color:#4C1983"/>
		<stop  offset="0.3509" style="stop-color:#3B1471"/>
		<stop  offset="0.5931" style="stop-color:#35126B"/>
		<stop  offset="0.8792" style="stop-color:#50258A"/>
		<stop  offset="1" style="stop-color:#5C2E99"/>
	</linearGradient>
	<rect x="-408.129" y="245.5" display="inline" fill="url(#SVGID_6_)" width="69.375" height="69.375"/>
</g>
<g id="BG">
	<linearGradient id="SVGID_7_" gradientUnits="userSpaceOnUse" x1="-125.8486" y1="441.3027" x2="-23.3266" y2="401.9482">
		<stop  offset="0" style="stop-color:#44187C"/>
		<stop  offset="0.3512" style="stop-color:#411C7E"/>
		<stop  offset="0.6927" style="stop-color:#382885"/>
		<stop  offset="1" style="stop-color:#2B3990"/>
	</linearGradient>
	<rect x="-117.088" y="379.125" fill="url(#SVGID_7_)" width="85" height="85"/>
</g>
<g id="SHADOWS" display="none">
	<polygon display="inline" fill="#35126B" points="-20.087,464.125 -58.479,431.406 -58.588,398.875 -43.557,397.312 	"/>
	<polygon display="inline" fill="#35126B" points="-36.087,474.334 -94.369,446.266 -99.401,405.542 -64.421,404.958 	"/>
	<polygon display="inline" fill="#35126B" points="-29.51,467.5 -56.897,464.125 -54.775,435.667 -29.51,444.167 	"/>
</g>
<g id="SHADOW_ISO">
	<g>
		<path fill="#35126B" d="M-61.465,421.294v28.77h-11.9l-1.223-1.126c-1.307,0.467-1.425,0.671-2.801,0.881
			c-1.377,0.21-2.742,0.315-4.096,0.315c-3.313,0-6.557-0.63-9.729-1.891c-3.174-1.26-6.02-3.149-8.54-5.67
			c-2.52-2.52-4.399-5.354-5.635-8.505c-1.237-3.149-1.855-6.381-1.855-9.695c0-3.312,0.618-6.556,1.855-9.729
			c1.236-3.173,3.115-6.02,5.635-8.54s5.366-4.41,8.54-5.67c3.173-1.26,7.416-2.89,10.729-2.89s6.557,0.63,9.731,1.89
			c3.172,1.26,6.02,3.15,8.539,5.67l-8.307,8.307l-2.356-0.028c-0.772-0.601-2.146-1.448-3.357-1.924
			c-1.727-0.676-3.477-1.015-5.25-1.015s-3.523,0.339-5.25,1.015c-1.727,0.678-3.267,1.692-4.62,3.046
			c-1.354,1.354-2.38,2.894-3.08,4.619c-0.7,1.728-1.05,3.478-1.05,5.25c0,1.774,0.35,3.524,1.05,5.25
			c0.7,1.728,1.726,3.268,3.08,4.62c1.213,1.215,2.578,2.159,4.095,2.835c1.516,0.678,3.08,1.074,4.689,1.19
			c1.61,0.117,3.208-0.035,4.796-0.455c1.586-0.42,3.056-1.12,4.409-2.1v-2.591h-10.29l-1.204-1.102l1.204-10.728l20.973-1.138
			L-61.465,421.294z"/>
	</g>
	<path fill="#35126B" d="M-50.299,450.461c-4.393,0-7.992-3.528-7.992-7.92c0-4.393,3.6-7.993,7.992-7.993s7.992,3.601,7.992,7.993
		C-42.307,446.933-45.906,450.461-50.299,450.461z M-42.379,398.401l-1.008,34.13h-13.896l-1.211-1.125l0.274-33.005l14.632-1.12
		L-42.379,398.401z"/>
</g>
<g id="EXTRA" display="none">
	<g display="inline" opacity="0.2">
		<path fill="#FFFFFF" d="M-90.999,454.085l-1.368,2.085l-0.034-0.18l1.128,0.953l0.005,0.004c0.023,0.02,0.03,0.051,0.019,0.077
			l-0.601,1.476l0.466-1.523l0.023,0.08l-1.209-0.848c-0.055-0.038-0.071-0.111-0.041-0.169l0.006-0.011l1.176-2.2
			c0.065-0.122,0.217-0.168,0.338-0.103c0.122,0.065,0.168,0.217,0.103,0.339C-90.99,454.072-90.995,454.078-90.999,454.085z"/>
	</g>
	<g display="inline" opacity="0.2">
		<path fill="#FFFFFF" d="M-71.196,456.604l1.452,2.383l0.005,0.009c0.035,0.058,0.021,0.132-0.031,0.173l-1.303,1.02l0.02-0.082
			l0.615,1.672l-0.747-1.617c-0.013-0.027-0.005-0.059,0.015-0.078l0.004-0.004l1.217-1.121l-0.025,0.182l-1.638-2.258
			c-0.081-0.112-0.056-0.269,0.056-0.35s0.268-0.057,0.349,0.056C-71.204,456.593-71.2,456.599-71.196,456.604z"/>
	</g>
	<g display="inline" opacity="0.2">
		<path fill="#FFFFFF" d="M-112.427,459.006l2.073-1.812l-0.014,0.185l-0.953-1.34l-0.003-0.005
			c-0.018-0.024-0.016-0.058,0.001-0.08l1.069-1.391l-0.953,1.473l-0.001-0.085l1.059,1.259c0.043,0.053,0.04,0.129-0.006,0.177
			l-0.008,0.009l-1.919,1.975c-0.096,0.099-0.254,0.102-0.354,0.005s-0.102-0.255-0.005-0.354
			C-112.437,459.016-112.432,459.011-112.427,459.006z"/>
	</g>
	<g display="inline" opacity="0.2">
		<path fill="#FFFFFF" d="M-37.018,404.14l-1.369,2.085l-0.034-0.18l1.129,0.953l0.005,0.004c0.022,0.02,0.029,0.051,0.019,0.077
			l-0.601,1.476l0.466-1.524l0.023,0.081l-1.209-0.847c-0.055-0.039-0.071-0.111-0.04-0.169l0.006-0.011l1.176-2.2
			c0.065-0.122,0.217-0.168,0.339-0.103c0.122,0.065,0.168,0.217,0.103,0.339C-37.01,404.127-37.014,404.134-37.018,404.14z"/>
	</g>
	<g display="inline" opacity="0.2">
		<path fill="#FFFFFF" d="M-38.837,434.565l2.03,1.914l0.008,0.008c0.049,0.047,0.055,0.122,0.016,0.175l-0.987,1.327l-0.003-0.084
			l1.036,1.45l-1.149-1.362c-0.02-0.023-0.021-0.056-0.006-0.079l0.004-0.005l0.877-1.403l0.023,0.183l-2.177-1.746
			c-0.107-0.086-0.125-0.244-0.039-0.352c0.087-0.107,0.244-0.125,0.353-0.039C-38.847,434.557-38.842,434.561-38.837,434.565z"/>
	</g>
	<g display="inline" opacity="0.2">
		<path fill="#FFFFFF" d="M-40.948,422.794l2.735-0.319l-0.116,0.144l-0.025-1.645v-0.005c0-0.031,0.02-0.057,0.047-0.065
			l1.668-0.541l-1.619,0.674l0.047-0.071l0.158,1.637c0.007,0.068-0.039,0.128-0.104,0.142l-0.012,0.002l-2.7,0.541
			c-0.136,0.027-0.268-0.061-0.295-0.196c-0.026-0.136,0.062-0.268,0.196-0.294C-40.962,422.796-40.955,422.795-40.948,422.794z"/>
	</g>
	<g display="inline" opacity="0.2">
		<path fill="#FFFFFF" d="M-52.088,455.731l-1.367,2.085l-0.035-0.18l1.129,0.952l0.005,0.004c0.022,0.02,0.029,0.051,0.019,0.077
			l-0.602,1.476l0.467-1.524l0.023,0.081l-1.209-0.847c-0.055-0.038-0.071-0.111-0.04-0.169l0.006-0.011l1.175-2.2
			c0.065-0.121,0.217-0.168,0.339-0.103c0.121,0.065,0.168,0.217,0.103,0.339C-52.08,455.719-52.084,455.725-52.088,455.731z"/>
	</g>
	<g display="inline" opacity="0.2">
		<path fill="#FFFFFF" d="M-111.046,399.064l1.452,2.382l0.006,0.01c0.035,0.058,0.021,0.131-0.031,0.172l-1.303,1.021l0.02-0.082
			l0.615,1.672l-0.747-1.618c-0.013-0.027-0.006-0.059,0.015-0.078l0.004-0.004l1.217-1.121l-0.025,0.181l-1.638-2.258
			c-0.081-0.112-0.056-0.269,0.056-0.35s0.268-0.056,0.349,0.056C-111.054,399.053-111.05,399.059-111.046,399.064z"/>
	</g>
	<g display="inline" opacity="0.2">
		<path fill="#FFFFFF" d="M-37.668,459.241l0.323-2.734l0.113,0.146l-1.606-0.355l-0.006-0.001c-0.029-0.007-0.05-0.032-0.052-0.061
			l-0.139-1.749l0.279,1.731l-0.058-0.062l1.63,0.225c0.067,0.009,0.116,0.068,0.113,0.135v0.012l-0.101,2.752
			c-0.005,0.138-0.121,0.246-0.259,0.24c-0.139-0.005-0.246-0.121-0.241-0.259C-37.67,459.255-37.669,459.248-37.668,459.241z"/>
	</g>
	<g display="inline" opacity="0.2">
		<path fill="#FFFFFF" d="M-94.246,389.124l-1.368,2.085l-0.035-0.18l1.129,0.953l0.005,0.004c0.023,0.02,0.03,0.051,0.019,0.077
			l-0.601,1.476l0.466-1.524l0.023,0.081l-1.209-0.847c-0.055-0.039-0.071-0.111-0.041-0.169l0.006-0.011l1.176-2.2
			c0.065-0.122,0.217-0.168,0.338-0.103c0.122,0.065,0.168,0.217,0.103,0.339C-94.237,389.111-94.242,389.118-94.246,389.124z"/>
	</g>
	<g display="inline" opacity="0.2">
		<path fill="#FFFFFF" d="M-108.874,384.601l1.452,2.382l0.006,0.01c0.035,0.058,0.021,0.131-0.031,0.172l-1.303,1.021l0.02-0.082
			l0.615,1.672l-0.747-1.618c-0.013-0.027-0.006-0.059,0.015-0.078l0.004-0.004l1.217-1.121l-0.025,0.181l-1.638-2.258
			c-0.081-0.112-0.056-0.269,0.056-0.35s0.268-0.056,0.349,0.056C-108.881,384.59-108.877,384.596-108.874,384.601z"/>
	</g>
	<g display="inline" opacity="0.2">
		<path fill="#FFFFFF" d="M-81.935,389.648l1.406-2.368l0.044,0.18l-1.323-0.978l-0.004-0.003c-0.024-0.018-0.033-0.049-0.023-0.077
			l0.583-1.654l-0.447,1.696l-0.028-0.08l1.398,0.867c0.058,0.036,0.078,0.109,0.049,0.169l-0.005,0.011l-1.209,2.474
			c-0.061,0.125-0.21,0.176-0.334,0.115c-0.124-0.061-0.176-0.21-0.115-0.335C-81.942,389.66-81.938,389.654-81.935,389.648z"/>
	</g>
	<g display="inline" opacity="0.2">
		<path fill="#FFFFFF" d="M-112.289,414.014l-1.368,2.085l-0.035-0.18l1.129,0.953l0.005,0.004c0.023,0.02,0.03,0.051,0.019,0.077
			l-0.601,1.476l0.466-1.524l0.023,0.081l-1.209-0.847c-0.055-0.039-0.071-0.111-0.041-0.169l0.006-0.011l1.176-2.2
			c0.065-0.122,0.217-0.168,0.338-0.103c0.122,0.065,0.168,0.217,0.103,0.339C-112.28,414.001-112.285,414.008-112.289,414.014z"/>
	</g>
	<g display="inline" opacity="0.2">
		<path fill="#FFFFFF" d="M-40.033,389.269l2.234-1.609l-0.032,0.183l-0.822-1.424l-0.003-0.005c-0.015-0.026-0.01-0.059,0.01-0.08
			l1.195-1.284l-1.088,1.377l0.007-0.084l0.935,1.353c0.039,0.056,0.028,0.131-0.022,0.175l-0.009,0.008l-2.096,1.785
			c-0.105,0.089-0.263,0.077-0.353-0.028c-0.09-0.105-0.077-0.263,0.028-0.353C-40.044,389.277-40.038,389.273-40.033,389.269z"/>
	</g>
	<g display="inline" opacity="0.2">
		<path fill="#FFFFFF" d="M-64.11,392.743l-1.368,2.085l-0.035-0.18l1.129,0.953l0.005,0.004c0.022,0.02,0.029,0.051,0.019,0.077
			l-0.601,1.476l0.466-1.524l0.023,0.081l-1.209-0.847c-0.055-0.039-0.071-0.111-0.04-0.169l0.006-0.011l1.176-2.2
			c0.065-0.122,0.217-0.168,0.339-0.103c0.122,0.065,0.168,0.217,0.103,0.339C-64.103,392.73-64.106,392.737-64.11,392.743z"/>
	</g>
	<g display="inline" opacity="0.2">
		<path fill="#FFFFFF" d="M-55.34,382.249l1.452,2.382l0.005,0.01c0.035,0.058,0.021,0.131-0.031,0.172l-1.303,1.02l0.02-0.082
			l0.615,1.672l-0.748-1.618c-0.013-0.027-0.005-0.059,0.016-0.078l0.005-0.004l1.217-1.121l-0.025,0.181l-1.638-2.258
			c-0.081-0.112-0.057-0.269,0.056-0.35c0.111-0.081,0.269-0.056,0.35,0.056C-55.347,382.237-55.343,382.243-55.34,382.249z"/>
	</g>
	<g display="inline" opacity="0.5">
		<path fill="#8DC63F" d="M-158.224,428.449l1.406-2.366l0.044,0.18l-1.323-0.979l-0.004-0.003c-0.024-0.019-0.033-0.05-0.023-0.077
			l0.583-1.654l-0.447,1.696l-0.028-0.079l1.398,0.867c0.058,0.036,0.078,0.109,0.049,0.169l-0.005,0.011l-1.209,2.474
			c-0.061,0.124-0.21,0.175-0.334,0.114s-0.176-0.21-0.115-0.334C-158.23,428.461-158.227,428.455-158.224,428.449z"/>
	</g>
	<g display="inline" opacity="0.2">
		<path fill="#FFFFFF" d="M-113.38,444.071l2.28-1.012l-0.068,0.169l-0.433-1.411l-0.002-0.007
			c-0.009-0.028,0.002-0.058,0.026-0.074l1.305-0.916l-1.217,1.029l0.023-0.081l0.558,1.367c0.025,0.062,0,0.133-0.058,0.164
			l-0.011,0.006l-2.18,1.213c-0.121,0.067-0.273,0.023-0.34-0.097c-0.067-0.121-0.024-0.273,0.097-0.341
			C-113.393,444.078-113.386,444.074-113.38,444.071z"/>
	</g>
	<g display="inline" opacity="0.5">
		<path fill="#8DC63F" d="M-173.443,423.715l1.406-2.368l0.044,0.18l-1.323-0.978l-0.004-0.003
			c-0.024-0.018-0.033-0.049-0.023-0.077l0.583-1.654l-0.447,1.696l-0.028-0.08l1.398,0.867c0.058,0.036,0.078,0.109,0.049,0.169
			l-0.005,0.011l-1.209,2.474c-0.061,0.125-0.21,0.175-0.334,0.115s-0.176-0.21-0.115-0.334
			C-173.45,423.727-173.447,423.721-173.443,423.715z"/>
	</g>
	<g display="inline" opacity="0.5">
		<path fill="#8DC63F" d="M-136.15,374.597c0,0-0.001,0.09-0.02,0.256c-0.016,0.17-0.064,0.443-0.312,0.687
			c-0.127,0.108-0.305,0.195-0.501,0.201c-0.057,0-0.08,0.005-0.165-0.003l-0.12-0.035c-0.075-0.02-0.198-0.079-0.279-0.128
			c-0.323-0.239-0.556-0.553-0.641-0.979c-0.035-0.188,0.002-0.444,0.11-0.64c0.115-0.192,0.283-0.351,0.479-0.453
			c0.197-0.09,0.423-0.137,0.616-0.094c0.158,0.013,0.403,0.123,0.506,0.231c0.244,0.251,0.294,0.527,0.308,0.693
			C-136.149,374.501-136.15,374.597-136.15,374.597z M-136.2,374.594c-0.009,0.002,0.005-0.093-0.059-0.235
			c-0.023-0.074-0.094-0.144-0.166-0.215c-0.079-0.068-0.183-0.114-0.285-0.153c-0.134-0.028-0.165-0.055-0.324-0.063
			c-0.121-0.011-0.232,0.017-0.354,0.048c-0.119,0.041-0.228,0.121-0.323,0.223c-0.089,0.11-0.154,0.217-0.204,0.396
			c-0.028,0.158-0.002,0.331,0.084,0.476c0.093,0.139,0.241,0.232,0.392,0.257c0.08,0.005,0.116,0.017,0.207,0.008l0.125-0.01
			c-0.004-0.005,0.052-0.015,0.074-0.021c0.122-0.016,0.22-0.065,0.33-0.095c0.101-0.044,0.204-0.092,0.282-0.161
			c0.071-0.072,0.141-0.142,0.164-0.214C-136.193,374.691-136.209,374.59-136.2,374.594z"/>
	</g>
	<g display="inline" opacity="0.5">
		<path fill="#8DC63F" d="M-138.571,374.723c0,0-0.001,0.09-0.02,0.256c-0.016,0.17-0.064,0.443-0.312,0.687
			c-0.127,0.108-0.305,0.194-0.5,0.2c-0.057,0-0.081,0.005-0.165-0.003l-0.12-0.035c-0.075-0.019-0.198-0.079-0.279-0.127
			c-0.323-0.239-0.556-0.553-0.641-0.979c-0.035-0.188,0.002-0.444,0.11-0.64c0.115-0.192,0.284-0.35,0.48-0.453
			c0.197-0.09,0.423-0.136,0.616-0.093c0.158,0.014,0.403,0.123,0.506,0.231c0.245,0.251,0.294,0.527,0.308,0.693
			C-138.57,374.628-138.571,374.723-138.571,374.723z M-138.621,374.72c-0.009,0.002,0.005-0.093-0.058-0.235
			c-0.024-0.074-0.095-0.144-0.166-0.215c-0.079-0.068-0.183-0.114-0.285-0.153c-0.134-0.028-0.165-0.055-0.324-0.063
			c-0.122-0.011-0.233,0.017-0.354,0.048c-0.12,0.041-0.228,0.121-0.323,0.223c-0.089,0.11-0.154,0.216-0.204,0.396
			c-0.028,0.158-0.002,0.331,0.084,0.476c0.093,0.138,0.241,0.232,0.392,0.257c0.081,0.005,0.117,0.017,0.208,0.008l0.125-0.01
			c-0.004-0.005,0.052-0.015,0.074-0.021c0.122-0.016,0.22-0.065,0.329-0.095c0.102-0.043,0.205-0.091,0.283-0.16
			c0.071-0.073,0.141-0.142,0.164-0.214C-138.614,374.818-138.63,374.717-138.621,374.72z"/>
	</g>
	<g display="inline" opacity="0.5">
		<path fill="#8DC63F" d="M-141.262,379.062c0,0-0.001,0.09-0.02,0.256c-0.016,0.17-0.064,0.443-0.312,0.687
			c-0.127,0.108-0.305,0.195-0.501,0.201c-0.057,0-0.08,0.005-0.165-0.003l-0.12-0.035c-0.075-0.02-0.198-0.079-0.279-0.128
			c-0.323-0.239-0.556-0.553-0.641-0.979c-0.035-0.188,0.002-0.444,0.11-0.64c0.115-0.192,0.283-0.351,0.479-0.453
			c0.197-0.09,0.423-0.137,0.616-0.094c0.158,0.013,0.403,0.123,0.506,0.231c0.244,0.251,0.294,0.527,0.308,0.693
			C-141.261,378.967-141.262,379.062-141.262,379.062z M-141.312,379.06c-0.009,0.002,0.005-0.093-0.059-0.235
			c-0.023-0.074-0.094-0.144-0.166-0.215c-0.079-0.068-0.183-0.114-0.285-0.153c-0.134-0.028-0.165-0.055-0.324-0.063
			c-0.121-0.011-0.232,0.017-0.354,0.048c-0.119,0.041-0.228,0.121-0.323,0.223c-0.089,0.11-0.154,0.217-0.204,0.396
			c-0.028,0.158-0.002,0.331,0.084,0.476c0.093,0.139,0.241,0.232,0.392,0.257c0.08,0.005,0.116,0.017,0.207,0.008l0.125-0.01
			c-0.004-0.005,0.052-0.015,0.074-0.021c0.122-0.016,0.22-0.065,0.33-0.095c0.101-0.044,0.204-0.092,0.282-0.161
			c0.071-0.072,0.141-0.142,0.164-0.214C-141.305,379.157-141.321,379.056-141.312,379.06z"/>
	</g>
	<g display="inline" opacity="0.5">
		<path fill="#8DC63F" d="M-143.683,379.189c0,0-0.001,0.09-0.02,0.256c-0.016,0.17-0.064,0.443-0.312,0.687
			c-0.127,0.108-0.305,0.194-0.5,0.2c-0.057,0-0.081,0.005-0.165-0.003l-0.12-0.035c-0.075-0.019-0.198-0.079-0.279-0.127
			c-0.323-0.239-0.556-0.553-0.641-0.979c-0.035-0.188,0.002-0.444,0.11-0.64c0.115-0.192,0.284-0.35,0.48-0.453
			c0.197-0.09,0.423-0.136,0.616-0.093c0.158,0.014,0.403,0.123,0.506,0.231c0.245,0.251,0.294,0.527,0.308,0.693
			C-143.682,379.094-143.683,379.189-143.683,379.189z M-143.733,379.186c-0.009,0.002,0.005-0.093-0.058-0.235
			c-0.024-0.074-0.095-0.144-0.166-0.215c-0.079-0.068-0.183-0.114-0.285-0.153c-0.134-0.028-0.165-0.055-0.324-0.063
			c-0.122-0.011-0.233,0.017-0.354,0.048c-0.12,0.041-0.228,0.121-0.323,0.223c-0.089,0.11-0.154,0.216-0.204,0.396
			c-0.028,0.158-0.002,0.331,0.084,0.476c0.093,0.138,0.241,0.232,0.392,0.257c0.081,0.005,0.117,0.017,0.208,0.008l0.125-0.01
			c-0.004-0.005,0.052-0.015,0.074-0.021c0.122-0.016,0.22-0.065,0.329-0.095c0.102-0.043,0.205-0.091,0.283-0.16
			c0.071-0.073,0.141-0.142,0.164-0.214C-143.726,379.284-143.742,379.183-143.733,379.186z"/>
	</g>
	<g display="inline" opacity="0.5">
		<path fill="#8DC63F" d="M-133.443,378.062c0,0-0.001,0.09-0.02,0.256c-0.016,0.17-0.064,0.443-0.312,0.687
			c-0.127,0.108-0.305,0.195-0.501,0.201c-0.057,0-0.08,0.005-0.165-0.003l-0.12-0.035c-0.075-0.02-0.198-0.079-0.279-0.128
			c-0.323-0.239-0.556-0.553-0.641-0.979c-0.035-0.188,0.002-0.444,0.11-0.64c0.115-0.192,0.283-0.351,0.479-0.453
			c0.197-0.09,0.423-0.137,0.616-0.094c0.158,0.013,0.403,0.123,0.506,0.231c0.244,0.251,0.294,0.527,0.308,0.693
			C-133.441,377.966-133.443,378.062-133.443,378.062z M-133.493,378.059c-0.009,0.002,0.005-0.093-0.059-0.235
			c-0.023-0.074-0.094-0.144-0.166-0.215c-0.079-0.068-0.183-0.114-0.285-0.153c-0.134-0.028-0.165-0.055-0.324-0.063
			c-0.121-0.011-0.232,0.017-0.354,0.048c-0.119,0.041-0.228,0.121-0.323,0.223c-0.089,0.11-0.154,0.217-0.204,0.396
			c-0.028,0.158-0.002,0.331,0.084,0.476c0.093,0.139,0.241,0.232,0.392,0.257c0.08,0.005,0.116,0.017,0.207,0.008l0.125-0.01
			c-0.004-0.005,0.052-0.015,0.074-0.021c0.122-0.016,0.22-0.065,0.33-0.095c0.101-0.044,0.204-0.092,0.282-0.161
			c0.071-0.072,0.141-0.142,0.164-0.214C-133.485,378.156-133.501,378.055-133.493,378.059z"/>
	</g>
	<g display="inline" opacity="0.5">
		<path fill="#8DC63F" d="M-135.864,378.188c0,0-0.001,0.09-0.02,0.256c-0.016,0.17-0.064,0.443-0.312,0.687
			c-0.127,0.108-0.305,0.194-0.5,0.2c-0.057,0-0.081,0.005-0.165-0.003l-0.12-0.035c-0.075-0.019-0.198-0.079-0.279-0.127
			c-0.323-0.239-0.556-0.553-0.641-0.979c-0.035-0.188,0.002-0.444,0.11-0.64c0.115-0.192,0.284-0.35,0.48-0.453
			c0.197-0.09,0.423-0.136,0.616-0.093c0.158,0.014,0.403,0.123,0.506,0.231c0.245,0.251,0.294,0.527,0.308,0.693
			C-135.862,378.093-135.864,378.188-135.864,378.188z M-135.914,378.185c-0.009,0.002,0.005-0.093-0.058-0.235
			c-0.024-0.074-0.095-0.144-0.166-0.215c-0.079-0.068-0.183-0.114-0.285-0.153c-0.134-0.028-0.165-0.055-0.324-0.063
			c-0.122-0.011-0.233,0.017-0.354,0.048c-0.12,0.041-0.228,0.121-0.323,0.223c-0.089,0.11-0.154,0.216-0.204,0.396
			c-0.028,0.158-0.002,0.331,0.084,0.476c0.093,0.138,0.241,0.232,0.392,0.257c0.081,0.005,0.117,0.017,0.208,0.008l0.125-0.01
			c-0.004-0.005,0.052-0.015,0.074-0.021c0.122-0.016,0.22-0.065,0.329-0.095c0.102-0.043,0.205-0.091,0.283-0.16
			c0.071-0.073,0.141-0.142,0.164-0.214C-135.906,378.283-135.923,378.182-135.914,378.185z"/>
	</g>
	<g display="inline" opacity="0.5">
		<path fill="#8DC63F" d="M-135.591,382.325c0,0-0.001,0.09-0.02,0.256c-0.016,0.17-0.064,0.443-0.312,0.687
			c-0.127,0.108-0.305,0.195-0.501,0.201c-0.057,0-0.08,0.005-0.165-0.003l-0.12-0.035c-0.075-0.02-0.198-0.079-0.279-0.128
			c-0.323-0.239-0.556-0.553-0.641-0.979c-0.035-0.188,0.002-0.444,0.11-0.64c0.115-0.192,0.283-0.351,0.479-0.453
			c0.197-0.09,0.423-0.137,0.616-0.094c0.158,0.013,0.403,0.123,0.506,0.231c0.244,0.251,0.294,0.527,0.308,0.693
			C-135.59,382.23-135.591,382.325-135.591,382.325z M-135.641,382.322c-0.009,0.002,0.005-0.093-0.059-0.235
			c-0.023-0.074-0.094-0.144-0.166-0.215c-0.079-0.068-0.183-0.114-0.285-0.153c-0.134-0.028-0.165-0.055-0.324-0.063
			c-0.121-0.011-0.232,0.017-0.354,0.048c-0.119,0.041-0.228,0.121-0.323,0.223c-0.089,0.11-0.154,0.217-0.204,0.396
			c-0.028,0.158-0.002,0.331,0.084,0.476c0.093,0.139,0.241,0.232,0.392,0.257c0.08,0.005,0.116,0.017,0.207,0.008l0.125-0.01
			c-0.004-0.005,0.052-0.015,0.074-0.021c0.122-0.016,0.22-0.065,0.33-0.095c0.101-0.044,0.204-0.092,0.282-0.161
			c0.071-0.072,0.141-0.142,0.164-0.214C-135.634,382.42-135.65,382.319-135.641,382.322z"/>
	</g>
	<g display="inline" opacity="0.5">
		<path fill="#8DC63F" d="M-138.012,382.452c0,0-0.001,0.09-0.02,0.256c-0.016,0.17-0.064,0.443-0.312,0.687
			c-0.127,0.108-0.305,0.194-0.5,0.2c-0.057,0-0.081,0.005-0.165-0.003l-0.12-0.035c-0.075-0.019-0.198-0.079-0.279-0.127
			c-0.323-0.239-0.556-0.553-0.641-0.979c-0.035-0.188,0.002-0.444,0.11-0.64c0.115-0.192,0.284-0.35,0.48-0.453
			c0.197-0.09,0.423-0.136,0.616-0.093c0.158,0.014,0.403,0.123,0.506,0.231c0.245,0.251,0.294,0.527,0.308,0.693
			C-138.011,382.357-138.012,382.452-138.012,382.452z M-138.062,382.449c-0.009,0.002,0.005-0.093-0.058-0.235
			c-0.024-0.074-0.095-0.144-0.166-0.215c-0.079-0.068-0.183-0.114-0.285-0.153c-0.134-0.028-0.165-0.055-0.324-0.063
			c-0.122-0.011-0.233,0.017-0.354,0.048c-0.12,0.041-0.228,0.121-0.323,0.223c-0.089,0.11-0.154,0.216-0.204,0.396
			c-0.028,0.158-0.002,0.331,0.084,0.476c0.093,0.138,0.241,0.232,0.392,0.257c0.081,0.005,0.117,0.017,0.208,0.008l0.125-0.01
			c-0.004-0.005,0.052-0.015,0.074-0.021c0.122-0.016,0.22-0.065,0.329-0.095c0.102-0.043,0.205-0.091,0.283-0.16
			c0.071-0.073,0.141-0.142,0.164-0.214C-138.055,382.546-138.071,382.445-138.062,382.449z"/>
	</g>
	<g display="inline" opacity="0.5">
		<path fill="#8DC63F" d="M-143.411,374.534c0,0-0.001,0.09-0.02,0.256c-0.016,0.17-0.064,0.443-0.312,0.687
			c-0.127,0.108-0.305,0.195-0.501,0.201c-0.057,0-0.08,0.005-0.165-0.003l-0.12-0.035c-0.075-0.02-0.198-0.079-0.279-0.128
			c-0.323-0.239-0.556-0.553-0.641-0.979c-0.035-0.188,0.002-0.444,0.11-0.64c0.115-0.192,0.283-0.351,0.479-0.453
			c0.197-0.09,0.423-0.137,0.616-0.094c0.158,0.013,0.403,0.123,0.506,0.231c0.244,0.251,0.294,0.527,0.308,0.693
			C-143.409,374.438-143.411,374.534-143.411,374.534z M-143.46,374.531c-0.009,0.002,0.005-0.093-0.059-0.235
			c-0.023-0.074-0.094-0.144-0.166-0.215c-0.079-0.068-0.183-0.114-0.285-0.153c-0.134-0.028-0.165-0.055-0.324-0.063
			c-0.121-0.011-0.232,0.017-0.354,0.048c-0.119,0.041-0.228,0.121-0.323,0.223c-0.089,0.11-0.154,0.217-0.204,0.396
			c-0.028,0.158-0.002,0.331,0.084,0.476c0.093,0.139,0.241,0.232,0.392,0.257c0.08,0.005,0.116,0.017,0.207,0.008l0.125-0.01
			c-0.004-0.005,0.052-0.015,0.074-0.021c0.122-0.016,0.22-0.065,0.33-0.095c0.101-0.044,0.204-0.092,0.282-0.161
			c0.071-0.072,0.141-0.142,0.164-0.214C-143.453,374.628-143.469,374.527-143.46,374.531z"/>
	</g>
	<g display="inline" opacity="0.5">
		<path fill="#8DC63F" d="M-145.832,374.66c0,0-0.001,0.09-0.02,0.256c-0.016,0.17-0.064,0.443-0.312,0.687
			c-0.127,0.108-0.305,0.194-0.5,0.2c-0.057,0-0.081,0.005-0.165-0.003l-0.12-0.035c-0.075-0.019-0.198-0.079-0.279-0.127
			c-0.323-0.239-0.556-0.553-0.641-0.979c-0.035-0.188,0.002-0.444,0.11-0.64c0.115-0.192,0.284-0.35,0.48-0.453
			c0.197-0.09,0.423-0.136,0.616-0.093c0.158,0.014,0.403,0.123,0.506,0.231c0.245,0.251,0.294,0.527,0.308,0.693
			C-145.83,374.565-145.832,374.66-145.832,374.66z M-145.881,374.657c-0.009,0.002,0.005-0.093-0.058-0.235
			c-0.024-0.074-0.095-0.144-0.166-0.215c-0.079-0.068-0.183-0.114-0.285-0.153c-0.134-0.028-0.165-0.055-0.324-0.063
			c-0.122-0.011-0.233,0.017-0.354,0.048c-0.12,0.041-0.228,0.121-0.323,0.223c-0.089,0.11-0.154,0.216-0.204,0.396
			c-0.028,0.158-0.002,0.331,0.084,0.476c0.093,0.138,0.241,0.232,0.392,0.257c0.081,0.005,0.117,0.017,0.208,0.008l0.125-0.01
			c-0.004-0.005,0.052-0.015,0.074-0.021c0.122-0.016,0.22-0.065,0.329-0.095c0.102-0.043,0.205-0.091,0.283-0.16
			c0.071-0.073,0.141-0.142,0.164-0.214C-145.874,374.755-145.891,374.654-145.881,374.657z"/>
	</g>
	<g display="inline" opacity="0.2">
		<path fill="#FFFFFF" d="M-83.392,459.766c0,0-0.001,0.091-0.02,0.257c-0.016,0.17-0.064,0.443-0.312,0.687
			c-0.127,0.107-0.305,0.194-0.5,0.2c-0.057-0.001-0.081,0.005-0.165-0.003l-0.12-0.035c-0.075-0.019-0.198-0.078-0.28-0.127
			c-0.165-0.118-0.293-0.263-0.411-0.419c-0.109-0.168-0.187-0.337-0.229-0.574c-0.036-0.161,0.002-0.437,0.11-0.627
			c0.115-0.192,0.284-0.35,0.48-0.452c0.197-0.09,0.424-0.137,0.616-0.094c0.158,0.014,0.403,0.123,0.506,0.232
			c0.245,0.251,0.294,0.527,0.308,0.692C-83.391,459.671-83.392,459.766-83.392,459.766z M-83.442,459.764
			c-0.009,0.002,0.005-0.094-0.058-0.235c-0.024-0.074-0.095-0.145-0.166-0.215c-0.079-0.067-0.183-0.114-0.285-0.153
			c-0.133-0.028-0.165-0.055-0.324-0.063c-0.122-0.011-0.233,0.017-0.354,0.049c-0.119,0.04-0.228,0.12-0.323,0.223
			c-0.089,0.116-0.153,0.202-0.204,0.41c-0.027,0.131-0.002,0.323,0.085,0.462c0.093,0.139,0.241,0.232,0.392,0.258
			c0.08,0.004,0.117,0.017,0.208,0.008l0.125-0.011c-0.004-0.005,0.052-0.016,0.074-0.021c0.122-0.016,0.221-0.064,0.33-0.095
			c0.101-0.044,0.204-0.092,0.283-0.16c0.071-0.072,0.141-0.142,0.164-0.214C-83.435,459.861-83.451,459.76-83.442,459.764z"/>
	</g>
	<g display="inline" opacity="0.2">
		<path fill="#FFFFFF" d="M-99.229,451.655c0,0-0.001,0.091-0.02,0.257c-0.016,0.17-0.064,0.443-0.312,0.687
			c-0.127,0.107-0.305,0.194-0.5,0.2c-0.057-0.001-0.081,0.005-0.165-0.003l-0.12-0.035c-0.075-0.019-0.198-0.078-0.28-0.127
			c-0.165-0.118-0.293-0.263-0.411-0.419c-0.109-0.168-0.187-0.337-0.229-0.574c-0.036-0.161,0.002-0.437,0.11-0.627
			c0.115-0.192,0.284-0.35,0.48-0.452c0.197-0.09,0.424-0.137,0.616-0.094c0.158,0.014,0.403,0.123,0.506,0.232
			c0.245,0.251,0.294,0.527,0.308,0.692C-99.228,451.561-99.229,451.655-99.229,451.655z M-99.279,451.653
			c-0.009,0.002,0.005-0.094-0.058-0.235c-0.024-0.074-0.095-0.145-0.166-0.215c-0.079-0.067-0.183-0.114-0.285-0.153
			c-0.133-0.028-0.165-0.055-0.324-0.063c-0.122-0.011-0.233,0.017-0.354,0.049c-0.119,0.04-0.228,0.12-0.323,0.223
			c-0.089,0.116-0.153,0.202-0.204,0.41c-0.027,0.131-0.002,0.323,0.085,0.462c0.093,0.139,0.241,0.232,0.392,0.258
			c0.08,0.004,0.117,0.017,0.208,0.008l0.125-0.011c-0.004-0.005,0.052-0.016,0.074-0.021c0.122-0.016,0.221-0.064,0.33-0.095
			c0.101-0.044,0.204-0.092,0.283-0.16c0.071-0.072,0.141-0.142,0.164-0.214C-99.272,451.751-99.289,451.649-99.279,451.653z"/>
	</g>
	<g display="inline" opacity="0.2">
		<path fill="#FFFFFF" d="M-44.497,454.756c0,0-0.002,0.091-0.021,0.257c-0.016,0.17-0.064,0.443-0.312,0.687
			c-0.128,0.108-0.305,0.194-0.501,0.2c-0.057-0.001-0.08,0.005-0.165-0.003l-0.12-0.035c-0.075-0.02-0.198-0.078-0.279-0.127
			c-0.165-0.118-0.294-0.263-0.411-0.418c-0.11-0.169-0.187-0.338-0.229-0.575c-0.036-0.161,0.001-0.437,0.109-0.627
			c0.115-0.192,0.284-0.35,0.48-0.452c0.197-0.09,0.423-0.137,0.616-0.094c0.158,0.014,0.402,0.123,0.506,0.232
			c0.244,0.25,0.294,0.526,0.308,0.692C-44.496,454.661-44.497,454.756-44.497,454.756z M-44.548,454.754
			c-0.008,0.002,0.005-0.094-0.058-0.235c-0.023-0.074-0.095-0.145-0.166-0.215c-0.078-0.067-0.183-0.114-0.285-0.153
			c-0.134-0.028-0.164-0.055-0.324-0.063c-0.121-0.011-0.232,0.017-0.354,0.049c-0.119,0.041-0.228,0.12-0.323,0.223
			c-0.089,0.116-0.153,0.203-0.204,0.41c-0.026,0.131-0.002,0.324,0.086,0.462c0.093,0.139,0.241,0.232,0.392,0.258
			c0.08,0.004,0.116,0.017,0.207,0.008l0.125-0.011c-0.004-0.005,0.052-0.016,0.074-0.021c0.121-0.016,0.22-0.064,0.329-0.095
			c0.102-0.044,0.204-0.092,0.283-0.16c0.07-0.072,0.141-0.142,0.163-0.214C-44.54,454.852-44.557,454.75-44.548,454.754z"/>
	</g>
	<g display="inline" opacity="0.2">
		<path fill="#FFFFFF" d="M-99.229,384.315c0,0-0.001,0.09-0.02,0.256c-0.016,0.17-0.064,0.443-0.312,0.687
			c-0.127,0.108-0.305,0.195-0.501,0.201c-0.057,0-0.08,0.005-0.165-0.003l-0.12-0.035c-0.075-0.019-0.198-0.079-0.279-0.127
			c-0.323-0.239-0.556-0.554-0.641-0.979c-0.035-0.188,0.002-0.444,0.11-0.64c0.115-0.192,0.284-0.351,0.48-0.453
			c0.197-0.09,0.423-0.136,0.616-0.093c0.158,0.013,0.403,0.123,0.506,0.231c0.244,0.251,0.294,0.527,0.308,0.693
			C-99.228,384.22-99.229,384.315-99.229,384.315z M-99.279,384.312c-0.009,0.002,0.005-0.093-0.059-0.235
			c-0.023-0.074-0.094-0.144-0.166-0.215c-0.079-0.068-0.183-0.114-0.285-0.153c-0.134-0.028-0.165-0.055-0.324-0.063
			c-0.121-0.011-0.232,0.017-0.354,0.048c-0.119,0.041-0.228,0.121-0.323,0.223c-0.089,0.11-0.154,0.216-0.204,0.396
			c-0.028,0.158-0.002,0.331,0.084,0.476c0.093,0.139,0.241,0.232,0.392,0.257c0.081,0.005,0.117,0.017,0.208,0.008l0.125-0.01
			c-0.004-0.005,0.052-0.015,0.074-0.021c0.122-0.016,0.22-0.065,0.329-0.095c0.101-0.044,0.205-0.092,0.283-0.161
			c0.071-0.072,0.141-0.142,0.164-0.214C-99.272,384.41-99.289,384.309-99.279,384.312z"/>
	</g>
	<g display="inline" opacity="0.2">
		<path fill="#FFFFFF" d="M-47.311,391.777c0,0-0.002,0.09-0.02,0.256c-0.016,0.17-0.064,0.443-0.312,0.687
			c-0.127,0.108-0.305,0.195-0.5,0.201c-0.057,0-0.08,0.005-0.166-0.003l-0.119-0.035c-0.076-0.019-0.198-0.079-0.279-0.127
			c-0.324-0.239-0.557-0.554-0.641-0.979c-0.035-0.188,0.002-0.444,0.109-0.64c0.115-0.192,0.283-0.351,0.48-0.453
			c0.197-0.09,0.423-0.136,0.615-0.093c0.158,0.013,0.404,0.123,0.507,0.231c0.244,0.251,0.294,0.527,0.308,0.693
			C-47.31,391.682-47.311,391.777-47.311,391.777z M-47.361,391.774c-0.008,0.002,0.006-0.093-0.059-0.235
			c-0.023-0.074-0.094-0.144-0.165-0.215c-0.079-0.068-0.183-0.114-0.285-0.153c-0.134-0.028-0.165-0.055-0.324-0.063
			c-0.121-0.011-0.232,0.017-0.354,0.048c-0.119,0.041-0.227,0.121-0.322,0.223c-0.089,0.11-0.154,0.216-0.203,0.396
			c-0.029,0.158-0.003,0.331,0.084,0.476c0.094,0.139,0.241,0.232,0.392,0.257c0.081,0.005,0.116,0.017,0.208,0.008l0.124-0.01
			c-0.004-0.005,0.052-0.015,0.074-0.021c0.122-0.016,0.22-0.065,0.329-0.095c0.102-0.044,0.205-0.092,0.283-0.161
			c0.07-0.072,0.141-0.142,0.164-0.214C-47.354,391.872-47.37,391.771-47.361,391.774z"/>
	</g>
	<g display="inline" opacity="0.2">
		<path fill="#FFFFFF" d="M-37.475,414.159c0,0-0.002,0.09-0.02,0.256c-0.016,0.17-0.064,0.443-0.312,0.687
			c-0.127,0.108-0.305,0.195-0.5,0.201c-0.057,0-0.08,0.005-0.166-0.003l-0.119-0.035c-0.076-0.019-0.198-0.079-0.279-0.127
			c-0.324-0.239-0.557-0.554-0.641-0.979c-0.035-0.188,0.002-0.444,0.109-0.64c0.115-0.192,0.283-0.351,0.48-0.453
			c0.197-0.09,0.423-0.136,0.615-0.093c0.158,0.013,0.404,0.123,0.507,0.231c0.244,0.251,0.294,0.527,0.308,0.693
			C-37.474,414.063-37.475,414.159-37.475,414.159z M-37.525,414.156c-0.008,0.002,0.006-0.093-0.059-0.235
			c-0.023-0.074-0.094-0.144-0.165-0.215c-0.079-0.068-0.183-0.114-0.285-0.153c-0.134-0.028-0.165-0.055-0.324-0.063
			c-0.121-0.011-0.232,0.017-0.354,0.048c-0.119,0.041-0.227,0.121-0.322,0.223c-0.089,0.11-0.154,0.216-0.203,0.396
			c-0.029,0.158-0.003,0.331,0.084,0.476c0.094,0.139,0.241,0.232,0.392,0.257c0.081,0.005,0.116,0.017,0.208,0.008l0.124-0.01
			c-0.004-0.005,0.052-0.015,0.074-0.021c0.122-0.016,0.22-0.065,0.329-0.095c0.102-0.044,0.205-0.092,0.283-0.161
			c0.07-0.072,0.141-0.142,0.164-0.214C-37.518,414.253-37.534,414.152-37.525,414.156z"/>
	</g>
	<g display="inline" opacity="0.2">
		
			<line fill="none" stroke="#FFFFFF" stroke-width="0.5" stroke-linecap="round" stroke-linejoin="round" stroke-miterlimit="10" x1="-103.659" y1="395.901" x2="-102.654" y2="397.083"/>
		
			<line fill="none" stroke="#FFFFFF" stroke-width="0.5" stroke-linecap="round" stroke-linejoin="round" stroke-miterlimit="10" x1="-102.588" y1="395.964" x2="-103.725" y2="397.02"/>
	</g>
	<g display="inline" opacity="0.2">
		
			<line fill="none" stroke="#FFFFFF" stroke-width="0.5" stroke-linecap="round" stroke-linejoin="round" stroke-miterlimit="10" x1="-88.493" y1="384.314" x2="-87.488" y2="385.496"/>
		
			<line fill="none" stroke="#FFFFFF" stroke-width="0.5" stroke-linecap="round" stroke-linejoin="round" stroke-miterlimit="10" x1="-87.421" y1="384.377" x2="-88.559" y2="385.433"/>
	</g>
	<g display="inline" opacity="0.2">
		
			<line fill="none" stroke="#FFFFFF" stroke-width="0.5" stroke-linecap="round" stroke-linejoin="round" stroke-miterlimit="10" x1="-74.522" y1="382.671" x2="-73.517" y2="383.853"/>
		
			<line fill="none" stroke="#FFFFFF" stroke-width="0.5" stroke-linecap="round" stroke-linejoin="round" stroke-miterlimit="10" x1="-73.451" y1="382.734" x2="-74.587" y2="383.79"/>
	</g>
	<g display="inline" opacity="0.2">
		
			<line fill="none" stroke="#FFFFFF" stroke-width="0.5" stroke-linecap="round" stroke-linejoin="round" stroke-miterlimit="10" x1="-38.003" y1="394.845" x2="-36.998" y2="396.027"/>
		
			<line fill="none" stroke="#FFFFFF" stroke-width="0.5" stroke-linecap="round" stroke-linejoin="round" stroke-miterlimit="10" x1="-36.932" y1="394.908" x2="-38.069" y2="395.964"/>
	</g>
	<g display="inline" opacity="0.5">
		
			<line fill="none" stroke="#8DC63F" stroke-width="0.5" stroke-linecap="round" stroke-linejoin="round" stroke-miterlimit="10" x1="-164.572" y1="380.848" x2="-163.567" y2="382.03"/>
		
			<line fill="none" stroke="#8DC63F" stroke-width="0.5" stroke-linecap="round" stroke-linejoin="round" stroke-miterlimit="10" x1="-163.501" y1="380.911" x2="-164.638" y2="381.967"/>
	</g>
	<g display="inline" opacity="0.2">
		
			<line fill="none" stroke="#FFFFFF" stroke-width="0.5" stroke-linecap="round" stroke-linejoin="round" stroke-miterlimit="10" x1="-58.429" y1="390.676" x2="-57.424" y2="391.858"/>
		
			<line fill="none" stroke="#FFFFFF" stroke-width="0.5" stroke-linecap="round" stroke-linejoin="round" stroke-miterlimit="10" x1="-57.357" y1="390.739" x2="-58.494" y2="391.795"/>
	</g>
	<g display="inline" opacity="0.5">
		
			<line fill="none" stroke="#8DC63F" stroke-width="0.5" stroke-linecap="round" stroke-linejoin="round" stroke-miterlimit="10" x1="-173.445" y1="372.607" x2="-172.44" y2="373.789"/>
		
			<line fill="none" stroke="#8DC63F" stroke-width="0.5" stroke-linecap="round" stroke-linejoin="round" stroke-miterlimit="10" x1="-172.374" y1="372.67" x2="-173.511" y2="373.726"/>
	</g>
	<g display="inline" opacity="0.5">
		
			<line fill="none" stroke="#8DC63F" stroke-width="0.5" stroke-linecap="round" stroke-linejoin="round" stroke-miterlimit="10" x1="-176.105" y1="376.166" x2="-175.101" y2="377.348"/>
		
			<line fill="none" stroke="#8DC63F" stroke-width="0.5" stroke-linecap="round" stroke-linejoin="round" stroke-miterlimit="10" x1="-175.034" y1="376.229" x2="-176.171" y2="377.285"/>
	</g>
	<g display="inline" opacity="0.5">
		
			<line fill="none" stroke="#8DC63F" stroke-width="0.5" stroke-linecap="round" stroke-linejoin="round" stroke-miterlimit="10" x1="-166.833" y1="374.981" x2="-165.829" y2="376.164"/>
		
			<line fill="none" stroke="#8DC63F" stroke-width="0.5" stroke-linecap="round" stroke-linejoin="round" stroke-miterlimit="10" x1="-165.762" y1="375.044" x2="-166.899" y2="376.101"/>
	</g>
	<g display="inline" opacity="0.5">
		
			<line fill="none" stroke="#8DC63F" stroke-width="0.5" stroke-linecap="round" stroke-linejoin="round" stroke-miterlimit="10" x1="-169.494" y1="378.54" x2="-168.489" y2="379.722"/>
		
			<line fill="none" stroke="#8DC63F" stroke-width="0.5" stroke-linecap="round" stroke-linejoin="round" stroke-miterlimit="10" x1="-168.423" y1="378.603" x2="-169.56" y2="379.659"/>
	</g>
	<g display="inline" opacity="0.2">
		
			<line fill="none" stroke="#FFFFFF" stroke-width="0.5" stroke-linecap="round" stroke-linejoin="round" stroke-miterlimit="10" x1="-113.273" y1="426.059" x2="-112.268" y2="427.241"/>
		
			<line fill="none" stroke="#FFFFFF" stroke-width="0.5" stroke-linecap="round" stroke-linejoin="round" stroke-miterlimit="10" x1="-112.202" y1="426.122" x2="-113.339" y2="427.178"/>
	</g>
	<g display="inline" opacity="0.2">
		
			<line fill="none" stroke="#FFFFFF" stroke-width="0.5" stroke-linecap="round" stroke-linejoin="round" stroke-miterlimit="10" x1="-107.747" y1="447.968" x2="-106.742" y2="449.15"/>
		
			<line fill="none" stroke="#FFFFFF" stroke-width="0.5" stroke-linecap="round" stroke-linejoin="round" stroke-miterlimit="10" x1="-106.676" y1="448.031" x2="-107.813" y2="449.087"/>
	</g>
	<g display="inline" opacity="0.2">
		
			<line fill="none" stroke="#FFFFFF" stroke-width="0.5" stroke-linecap="round" stroke-linejoin="round" stroke-miterlimit="10" x1="-75.09" y1="392.947" x2="-74.085" y2="394.129"/>
		
			<line fill="none" stroke="#FFFFFF" stroke-width="0.5" stroke-linecap="round" stroke-linejoin="round" stroke-miterlimit="10" x1="-74.019" y1="393.01" x2="-75.156" y2="394.066"/>
	</g>
	<g display="inline" opacity="0.2">
		
			<line fill="none" stroke="#FFFFFF" stroke-width="0.5" stroke-linecap="round" stroke-linejoin="round" stroke-miterlimit="10" x1="-38.372" y1="446.785" x2="-37.367" y2="447.968"/>
		
			<line fill="none" stroke="#FFFFFF" stroke-width="0.5" stroke-linecap="round" stroke-linejoin="round" stroke-miterlimit="10" x1="-37.301" y1="446.849" x2="-38.438" y2="447.904"/>
	</g>
	<g display="inline" opacity="0.2">
		
			<line fill="none" stroke="#FFFFFF" stroke-width="0.5" stroke-linecap="round" stroke-linejoin="round" stroke-miterlimit="10" x1="-79.19" y1="454.102" x2="-78.186" y2="455.283"/>
		
			<line fill="none" stroke="#FFFFFF" stroke-width="0.5" stroke-linecap="round" stroke-linejoin="round" stroke-miterlimit="10" x1="-78.119" y1="454.164" x2="-79.256" y2="455.221"/>
	</g>
	<g display="inline" opacity="0.5">
		<path fill="#8DC63F" d="M-145.221,397.138l4.658,3.037c0.06,0.04,0.077,0.12,0.038,0.18c-0.018,0.026-0.047,0.046-0.075,0.054
			l-5.574,1.71l0.045-0.403c1.676,0.878,3.339,1.779,4.958,2.76l0.011,0.007c0.097,0.059,0.128,0.185,0.069,0.282
			c-0.022,0.036-0.053,0.062-0.088,0.079c-1.084,0.515-2.185,0.999-3.295,1.461c-0.013,0.005-0.027-0.001-0.033-0.014
			c-0.005-0.012,0-0.025,0.01-0.031c1.031-0.621,2.073-1.22,3.13-1.789l-0.007,0.368c-1.69-0.853-3.335-1.785-4.968-2.74
			l-0.007-0.004c-0.104-0.061-0.139-0.194-0.078-0.298c0.03-0.051,0.078-0.085,0.131-0.1l5.624-1.54l-0.037,0.233l-4.54-3.212
			c-0.011-0.008-0.014-0.023-0.006-0.035S-145.232,397.13-145.221,397.138z"/>
	</g>
	<g display="inline" opacity="0.5">
		<path fill="#8DC63F" d="M-144.788,412.659c0.305,0.338,0.587,0.685,0.853,1.053c0.255,0.376,0.521,0.746,0.652,1.237
			c0.028,0.122,0.053,0.263,0.008,0.419c-0.018,0.049-0.005,0.055-0.052,0.137l-0.049,0.067c-0.013,0.037-0.123,0.118-0.19,0.16
			c-0.285,0.123-0.535,0.073-0.765,0.03c-0.46-0.106-0.867-0.294-1.27-0.508l0.181-0.176c0.208,0.464,0.397,0.931,0.501,1.438
			c0.011,0.133,0.046,0.257,0.018,0.403c-0.025,0.073-0.005,0.143-0.073,0.216c-0.043,0.046-0.079,0.095-0.128,0.139
			c-0.237,0.17-0.465,0.262-0.697,0.357c-0.23,0.098-0.465,0.182-0.683,0.296c-0.115,0.048-0.211,0.12-0.312,0.188
			c-0.087,0.075-0.178,0.162-0.213,0.273c-0.057,0.226,0.109,0.458,0.274,0.63c0.172,0.178,0.372,0.33,0.583,0.463
			c-0.217-0.124-0.423-0.267-0.606-0.439c-0.171-0.169-0.367-0.391-0.314-0.673c0.033-0.126,0.133-0.233,0.224-0.317
			c0.103-0.076,0.204-0.158,0.318-0.212c0.219-0.127,0.452-0.223,0.676-0.33c0.226-0.101,0.452-0.221,0.622-0.341
			c0.042-0.039,0.079-0.094,0.119-0.141c0.027-0.015,0.017-0.093,0.03-0.135c0.019-0.099-0.019-0.226-0.032-0.338
			c-0.116-0.467-0.324-0.924-0.543-1.359c-0.033-0.065-0.006-0.145,0.059-0.178c0.038-0.019,0.08-0.019,0.116-0.001l0.006,0.003
			c0.385,0.184,0.799,0.35,1.207,0.424c0.199,0.035,0.416,0.04,0.538-0.026c0.013-0.031,0.022,0.014,0.059-0.053l0.045-0.069
			c-0.021,0.034-0.003-0.018-0.005-0.021c0.017-0.055,0.005-0.146-0.023-0.234c-0.11-0.364-0.377-0.729-0.634-1.066
			c-0.267-0.338-0.559-0.666-0.86-0.972c-0.098-0.097-0.099-0.256-0.002-0.354s0.255-0.099,0.354-0.001
			C-144.795,412.651-144.79,412.657-144.788,412.659z"/>
	</g>
	<g display="inline" opacity="0.5">
		<path fill="#8DC63F" d="M-134.154,396.5l-1.303,4.172l-0.192-0.219c1.192-0.266,2.371-0.593,3.569-0.828l-0.157,0.396
			c-0.575-0.869-1.135-1.748-1.605-2.689c-0.006-0.012-0.001-0.027,0.011-0.034c0.01-0.005,0.022-0.002,0.03,0.005
			c0.725,0.763,1.36,1.589,1.981,2.425c0.083,0.111,0.059,0.268-0.052,0.35c-0.029,0.022-0.062,0.036-0.095,0.043l-0.011,0.002
			c-1.193,0.26-2.405,0.428-3.604,0.657l-0.008,0.001c-0.089,0.017-0.175-0.042-0.192-0.131c-0.006-0.031-0.002-0.062,0.008-0.09
			l1.573-4.078c0.005-0.013,0.019-0.019,0.032-0.014C-134.157,396.475-134.15,396.488-134.154,396.5z"/>
	</g>
	<g display="inline" opacity="0.2">
		<path fill="#FFFFFF" d="M-66.375,386.739c0.468-0.988,0.931-1.978,1.414-2.958l0.155,0.246c-0.913,0.064-1.823,0.191-2.738,0.225
			l0.216-0.367c0.319,0.712,0.623,1.433,0.828,2.202c0.004,0.014-0.005,0.028-0.019,0.031c-0.01,0.003-0.021-0.001-0.026-0.009
			c-0.484-0.632-0.87-1.312-1.24-1.999c-0.065-0.121-0.02-0.272,0.102-0.337c0.032-0.018,0.066-0.027,0.101-0.029l0.014-0.001
			c0.914-0.059,1.832-0.023,2.747-0.051h0.009c0.091-0.003,0.167,0.069,0.17,0.16c0,0.031-0.008,0.061-0.022,0.086
			c-0.542,0.948-1.105,1.885-1.664,2.824c-0.008,0.012-0.022,0.016-0.035,0.009C-66.376,386.764-66.38,386.75-66.375,386.739z"/>
	</g>
	<g display="inline" opacity="0.2">
		<path fill="#FFFFFF" d="M-45.822,384.949c0.844-0.345,1.687-0.696,2.537-1.023l-0.054,0.286c-0.596-0.478-1.231-0.908-1.808-1.41
			l0.408-0.121c-0.216,0.615-0.447,1.226-0.784,1.804c-0.008,0.012-0.023,0.016-0.035,0.009c-0.009-0.005-0.014-0.015-0.014-0.024
			c0.04-0.668,0.184-1.305,0.345-1.937c0.034-0.133,0.169-0.213,0.302-0.179c0.035,0.009,0.067,0.026,0.094,0.047l0.013,0.01
			c0.593,0.482,1.124,1.037,1.695,1.543l0.008,0.006c0.068,0.06,0.074,0.164,0.015,0.232c-0.021,0.023-0.048,0.04-0.075,0.048
			c-0.872,0.265-1.752,0.507-2.631,0.754c-0.013,0.004-0.026-0.004-0.03-0.017C-45.841,384.967-45.834,384.954-45.822,384.949z"/>
	</g>
	<g display="inline" opacity="0.2">
		<path fill="#FFFFFF" d="M-37.9,427.976c0.248,0.878,0.501,1.755,0.731,2.637l-0.278-0.086c0.542-0.538,1.041-1.122,1.604-1.638
			l0.074,0.419c-0.587-0.283-1.168-0.582-1.705-0.981c-0.012-0.009-0.014-0.025-0.005-0.036c0.006-0.009,0.016-0.012,0.024-0.011
			c0.66,0.114,1.276,0.329,1.887,0.56c0.128,0.049,0.192,0.191,0.144,0.319c-0.013,0.034-0.033,0.064-0.058,0.089l-0.012,0.011
			c-0.546,0.535-1.156,1.001-1.724,1.512l-0.008,0.007c-0.067,0.062-0.171,0.056-0.231-0.012c-0.021-0.023-0.034-0.052-0.039-0.08
			c-0.165-0.896-0.307-1.798-0.454-2.697c-0.002-0.014,0.007-0.027,0.021-0.029C-37.916,427.956-37.904,427.964-37.9,427.976z"/>
	</g>
	<g display="inline" opacity="0.2">
		<path fill="#FFFFFF" d="M-113.874,389.499c0.248,0.878,0.501,1.755,0.731,2.637l-0.278-0.086c0.542-0.538,1.041-1.122,1.604-1.638
			l0.074,0.419c-0.587-0.283-1.168-0.582-1.705-0.981c-0.012-0.009-0.014-0.025-0.005-0.036c0.006-0.009,0.016-0.012,0.024-0.011
			c0.66,0.114,1.276,0.329,1.887,0.56c0.128,0.049,0.192,0.191,0.144,0.319c-0.013,0.034-0.033,0.064-0.058,0.089l-0.012,0.011
			c-0.546,0.535-1.156,1.001-1.724,1.512l-0.008,0.007c-0.067,0.062-0.171,0.056-0.231-0.012c-0.021-0.023-0.034-0.052-0.039-0.08
			c-0.165-0.896-0.307-1.798-0.454-2.697c-0.002-0.014,0.007-0.027,0.021-0.029C-113.89,389.479-113.878,389.487-113.874,389.499z"
			/>
	</g>
	<g display="inline" opacity="0.2">
		<path fill="#FFFFFF" d="M-102.43,460.396c0.844-0.346,1.687-0.696,2.537-1.023l-0.054,0.285c-0.596-0.477-1.231-0.907-1.808-1.409
			l0.408-0.121c-0.216,0.615-0.447,1.226-0.784,1.804c-0.008,0.013-0.023,0.017-0.035,0.01c-0.009-0.006-0.014-0.015-0.014-0.023
			c0.04-0.669,0.184-1.306,0.345-1.938c0.034-0.133,0.169-0.213,0.302-0.179c0.035,0.009,0.067,0.026,0.094,0.048l0.013,0.01
			c0.593,0.482,1.124,1.037,1.695,1.543l0.008,0.007c0.068,0.06,0.074,0.164,0.015,0.231c-0.021,0.023-0.048,0.04-0.075,0.049
			c-0.872,0.264-1.752,0.506-2.631,0.754c-0.013,0.004-0.026-0.004-0.03-0.018C-102.448,460.414-102.441,460.4-102.43,460.396z"/>
	</g>
	<g display="inline" opacity="0.2">
		<path fill="#FFFFFF" d="M-62.885,453.802c-0.233,0.829-0.463,1.659-0.714,2.481l-0.192-0.219c0.702-0.164,1.392-0.391,2.101-0.523
			l-0.157,0.396c-0.329-0.52-0.645-1.049-0.87-1.641c-0.005-0.014,0.002-0.028,0.015-0.033c0.01-0.004,0.02-0.002,0.026,0.004
			c0.48,0.414,0.87,0.891,1.246,1.377c0.084,0.108,0.063,0.264-0.044,0.347c-0.029,0.022-0.062,0.038-0.096,0.046l-0.017,0.003
			c-0.704,0.159-1.426,0.226-2.136,0.354l-0.011,0.002c-0.089,0.016-0.174-0.043-0.19-0.132c-0.006-0.031-0.002-0.062,0.009-0.09
			c0.314-0.8,0.651-1.593,0.983-2.387c0.005-0.013,0.02-0.02,0.032-0.014C-62.888,453.777-62.881,453.79-62.885,453.802z"/>
	</g>
	<g display="inline" opacity="0.2">
		<path fill="#FFFFFF" d="M-111.441,433.544c-0.233,0.829-0.463,1.659-0.714,2.481l-0.192-0.219
			c0.702-0.164,1.392-0.391,2.101-0.523l-0.157,0.396c-0.329-0.52-0.645-1.049-0.87-1.641c-0.005-0.014,0.002-0.028,0.015-0.033
			c0.01-0.004,0.02-0.002,0.026,0.004c0.48,0.414,0.87,0.891,1.246,1.377c0.084,0.108,0.063,0.264-0.044,0.347
			c-0.029,0.022-0.062,0.038-0.096,0.046l-0.017,0.003c-0.704,0.159-1.426,0.226-2.136,0.354l-0.011,0.002
			c-0.089,0.016-0.174-0.043-0.19-0.132c-0.006-0.031-0.002-0.062,0.009-0.09c0.314-0.8,0.651-1.593,0.983-2.387
			c0.005-0.013,0.02-0.02,0.032-0.014C-111.444,433.52-111.438,433.532-111.441,433.544z"/>
	</g>
</g>
<g id="TEXT">
	<rect x="-113.775" y="397.279" fill="none" width="59" height="52.053"/>
	<text transform="matrix(1 0 0 1 -107.9697 448.9385)" fill="#FFFFFF" font-family="'TheBoldFont'" font-size="70">G</text>
	<rect x="-81.088" y="397.281" fill="none" width="59" height="52.051"/>
	<text transform="matrix(1 0 0 1 -62.5312 447.248)" fill="#FFFFFF" font-family="'DOCK11-Heavy'" font-size="72">!</text>
</g>
<g id="FONTS" display="none">
	<rect x="-301.233" y="287.021" display="inline" fill="none" width="59" height="54.979"/>
	
		<text transform="matrix(1 0 0 1 -299.394 307.46)" display="inline" fill="#FFFFFF" font-family="'BuiltTitlingRg-Bold'" font-size="27">G!/&lt;&gt;</text>
	<rect x="-374.631" y="296.833" display="inline" fill="none" width="59" height="54.979"/>
	<text transform="matrix(1 0 0 1 -371.1074 311.4072)" display="inline"><tspan x="0" y="0" fill="#FFFFFF" font-family="'DOCK11-Heavy'" font-size="21">G!/&lt;&gt; </tspan><tspan x="14.102" y="25.2" fill="#FFFFFF" font-family="'DOCK11-Heavy'" font-size="21">* /</tspan></text>
	<rect x="-370.213" y="226.333" display="inline" fill="none" width="59" height="54.979"/>
	
		<text transform="matrix(1 0 0 1 -361.813 245.2334)" display="inline" fill="#FFFFFF" font-family="'BebasNeueLight'" font-size="27">G!/&lt;&gt;</text>
</g>
<g id="COLORS">
	<linearGradient id="SVGID_8_" gradientUnits="userSpaceOnUse" x1="-7.6455" y1="248.8276" x2="36.6982" y2="248.8276">
		<stop  offset="0" style="stop-color:#44187C"/>
		<stop  offset="0.3512" style="stop-color:#411C7E"/>
		<stop  offset="0.6927" style="stop-color:#382885"/>
		<stop  offset="1" style="stop-color:#2B3990"/>
	</linearGradient>
	<rect x="-7.646" y="226.655" fill="url(#SVGID_8_)" width="44.344" height="44.345"/>
	<linearGradient id="SVGID_9_" gradientUnits="userSpaceOnUse" x1="46.8359" y1="248.8276" x2="91.1797" y2="248.8276">
		<stop  offset="0" style="stop-color:#44187C"/>
		<stop  offset="0.3512" style="stop-color:#411C7E"/>
		<stop  offset="0.6927" style="stop-color:#382885"/>
		<stop  offset="1" style="stop-color:#2B3990"/>
	</linearGradient>
	<rect x="46.836" y="226.655" fill="url(#SVGID_9_)" width="44.344" height="44.345"/>
	<linearGradient id="SVGID_10_" gradientUnits="userSpaceOnUse" x1="101.3174" y1="248.8276" x2="145.6611" y2="248.8276">
		<stop  offset="0" style="stop-color:#44187C"/>
		<stop  offset="0.3512" style="stop-color:#411C7E"/>
		<stop  offset="0.6927" style="stop-color:#382885"/>
		<stop  offset="1" style="stop-color:#2B3990"/>
	</linearGradient>
	<rect x="101.317" y="226.655" fill="url(#SVGID_10_)" width="44.344" height="44.345"/>
	<linearGradient id="SVGID_11_" gradientUnits="userSpaceOnUse" x1="155.3945" y1="248.8276" x2="199.7383" y2="248.8276">
		<stop  offset="0" style="stop-color:#46049C"/>
		<stop  offset="0.3118" style="stop-color:#6B00B6"/>
		<stop  offset="0.6845" style="stop-color:#23A6D5"/>
		<stop  offset="1" style="stop-color:#23D5AB"/>
	</linearGradient>
	<rect x="155.395" y="226.655" fill="url(#SVGID_11_)" width="44.344" height="44.345"/>
</g>
<g id="LINES">
	<path fill="#111111" d="M365.078,20.73c-23.206-1.895-45.528,3.652-67.341,11.265c-50.927,17.777-96.807,44.311-150.523,54.248
		C87.936,97.208,45.27,80.794,0,53.477V103h455.977V65.863C423.291,41.555,398.444,23.454,365.078,20.73z"/>
	<path fill="#111111" d="M147.214,72.242c53.717-9.937,99.597-36.47,150.523-54.248c21.812-7.613,44.135-13.159,67.341-11.265
		c33.366,2.724,58.213,18.825,90.898,43.133V-7H0v44.477C45.27,64.794,87.936,83.208,147.214,72.242z"/>
	<linearGradient id="SVGID_12_" gradientUnits="userSpaceOnUse" x1="-14.1143" y1="48" x2="470.0908" y2="48">
		<stop  offset="0" style="stop-color:#46049C"/>
		<stop  offset="0.3118" style="stop-color:#6B00B6"/>
		<stop  offset="0.6845" style="stop-color:#23A6D5"/>
		<stop  offset="1" style="stop-color:#23D5AB"/>
	</linearGradient>
	
		<path display="none" fill="none" stroke="url(#SVGID_12_)" stroke-width="16" stroke-linecap="round" stroke-linejoin="round" stroke-miterlimit="10" d="
		M-6.114,42.097c47.392,29.259,91.1,48.601,152.819,37.183c53.717-9.937,99.597-36.47,150.523-54.248
		c21.812-7.613,44.135-13.159,67.341-11.265c35.583,2.905,61.477,22.16,97.521,49.072"/>
</g>
</svg>
